STARTFONT 2.1
COMMENT  
COMMENT  
COMMENT  
COMMENT  WARNING:  This bdf file was generated from a font server using
COMMENT  fstobdf.  The resulting font is subject to the same copyright,
COMMENT  license, and trademark restrictions as the original font.  The
COMMENT  authors and distributors of fstobdf disclaim all liability for
COMMENT  misuse of the program or its output.
COMMENT  
FONT -star division-starbats-medium-r-normal--10-100-75-75-p-0-stardivision-fontspecific
SIZE 10 75 75
FONTBOUNDINGBOX 10 13 0 -3
STARTPROPERTIES 60
FONT "-star division-starbats-medium-r-normal--10-100-75-75-p-0-stardivision-fontspecific"
FONT_TYPE "TrueType"
TECHNOLOGY "TrueType"
FOUNDRY ""
FAMILY_NAME "starbats"
WEIGHT_NAME "medium"
SLANT "r"
SETWIDTH_NAME "normal"
ADD_STYLE_NAME ""
PIXEL_SIZE 10
POINT_SIZE 100
RESOLUTION_X 75
RESOLUTION_Y 75
SPACING "p"
AVERAGE_WIDTH 60
CHARSET_REGISTRY "stardivision"
CHARSET_ENCODING "fontspecific"
AVG_LOWERCASE_WIDTH 9
RAW_AVG_LOWERCASE_WIDTH 831
SUBSCRIPT_X 0
SUBSCRIPT_Y 1
SUBSCRIPT_SIZE 2
RAW_SUBSCRIPT_X 0
RAW_SUBSCRIPT_Y 211
RAW_SUBSCRIPT_SIZE 180
SUPERSCRIPT_X 0
SUPERSCRIPT_Y 6
SUPERSCRIPT_SIZE 2
RAW_SUPERSCRIPT_X 0
RAW_SUPERSCRIPT_Y 539
RAW_SUPERSCRIPT_SIZE 180
STRIKEOUT_ASCENT 3
STRIKEOUT_DESCENT -2
RAW_STRIKEOUT_ASCENT 308
RAW_STRIKEOUT_DESCENT -258
RELATIVE_SETWIDTH 50
RELATIVE_WEIGHT 40
_GALLIUM_PANOSE "2 11 5 0 0 0 0 0 0 0"
UNDERLINE_POSITION 0
UNDERLINE_THICKNESS 0
RAW_UNDERLINE_POSITION 0
RAW_UNDERLINE_THICKNESS 0
ITALIC_ANGLE 0
NORM_SPACE 3
RAW_NORM_SPACE 280
CAP_HEIGHT 6
RAW_CAP_HEIGHT 557
X_HEIGHT 5
RAW_X_HEIGHT 520
RAW_PIXEL_SIZE 1000
RAW_POINT_SIZE 9636
FONT_ASCENT 9
FONT_DESCENT 2
RAW_ASCENT 898
RAW_DESCENT 212
RAW_AVERAGE_WIDTH 6513
COPYRIGHT ""
FACE_NAME "StarB TT"
NOTICE ""
DEFAULT_CHAR 0
ENDPROPERTIES
CHARS 224
STARTCHAR space
ENCODING 32
SWIDTH 288 0
DWIDTH 3 0
BBX 0 0 0 0
ATTRIBUTES 0117
BITMAP
ENDCHAR
STARTCHAR exclam
ENCODING 33
SWIDTH 864 0
DWIDTH 9 0
BBX 7 9 1 -1
ATTRIBUTES 034c
BITMAP
30
4c
aa
aa
c6
c6
7a
7c
00
ENDCHAR
STARTCHAR quotedbl
ENCODING 34
SWIDTH 768 0
DWIDTH 8 0
BBX 6 6 1 1
ATTRIBUTES 02ec
BITMAP
30
78
fc
fc
78
78
ENDCHAR
STARTCHAR numbersign
ENCODING 35
SWIDTH 960 0
DWIDTH 10 0
BBX 8 8 1 0
ATTRIBUTES 03b8
BITMAP
38
46
83
83
83
83
46
3c
ENDCHAR
STARTCHAR dollar
ENCODING 36
SWIDTH 768 0
DWIDTH 8 0
BBX 6 6 1 1
ATTRIBUTES 02ec
BITMAP
fc
fc
fc
fc
fc
fc
ENDCHAR
STARTCHAR percent
ENCODING 37
SWIDTH 864 0
DWIDTH 9 0
BBX 7 8 1 0
ATTRIBUTES 037c
BITMAP
fe
82
82
82
82
82
82
fe
ENDCHAR
STARTCHAR ampersand
ENCODING 38
SWIDTH 864 0
DWIDTH 9 0
BBX 7 8 1 0
ATTRIBUTES 037c
BITMAP
fe
fe
82
82
82
82
fe
fe
ENDCHAR
STARTCHAR apostrophe
ENCODING 39
SWIDTH 864 0
DWIDTH 9 0
BBX 7 8 1 0
ATTRIBUTES 037c
BITMAP
fc
82
82
82
82
82
fe
fe
ENDCHAR
STARTCHAR parenleft
ENCODING 40
SWIDTH 864 0
DWIDTH 9 0
BBX 7 8 1 0
ATTRIBUTES 037c
BITMAP
7e
fe
82
82
82
82
82
fc
ENDCHAR
STARTCHAR parenright
ENCODING 41
SWIDTH 480 0
DWIDTH 5 0
BBX 3 4 1 2
ATTRIBUTES 01cb
BITMAP
40
40
e0
40
ENDCHAR
STARTCHAR asterisk
ENCODING 42
SWIDTH 768 0
DWIDTH 8 0
BBX 6 8 1 0
ATTRIBUTES 02ec
BITMAP
10
30
78
78
fc
78
30
30
ENDCHAR
STARTCHAR plus
ENCODING 43
SWIDTH 960 0
DWIDTH 10 0
BBX 8 8 1 0
ATTRIBUTES 03db
BITMAP
08
18
3c
7e
ff
7e
3c
18
ENDCHAR
STARTCHAR comma
ENCODING 44
SWIDTH 864 0
DWIDTH 9 0
BBX 7 8 1 0
ATTRIBUTES 037c
BITMAP
10
10
10
54
ee
54
38
10
ENDCHAR
STARTCHAR minus
ENCODING 45
SWIDTH 576 0
DWIDTH 6 0
BBX 4 4 1 2
ATTRIBUTES 0244
BITMAP
20
60
f0
60
ENDCHAR
STARTCHAR period
ENCODING 46
SWIDTH 960 0
DWIDTH 10 0
BBX 8 8 1 0
ATTRIBUTES 03b8
BITMAP
1c
6e
83
83
83
83
46
78
ENDCHAR
STARTCHAR slash
ENCODING 47
SWIDTH 768 0
DWIDTH 8 0
BBX 6 8 1 0
ATTRIBUTES 031b
BITMAP
80
c0
60
58
3c
70
40
80
ENDCHAR
STARTCHAR 0
ENCODING 48
SWIDTH 960 0
DWIDTH 10 0
BBX 8 8 1 0
ATTRIBUTES 03d3
BITMAP
10
08
04
02
ff
06
04
08
ENDCHAR
STARTCHAR 1
ENCODING 49
SWIDTH 1056 0
DWIDTH 11 0
BBX 9 8 1 0
ATTRIBUTES 042b
BITMAP
1800
0c00
0600
ff00
ff80
0700
0e00
1c00
ENDCHAR
STARTCHAR 2
ENCODING 50
SWIDTH 768 0
DWIDTH 8 0
BBX 7 7 0 1
ATTRIBUTES 0314
BITMAP
02
04
08
10
f0
60
40
ENDCHAR
STARTCHAR 3
ENCODING 51
SWIDTH 864 0
DWIDTH 9 0
BBX 7 8 1 0
ATTRIBUTES 037c
BITMAP
fe
82
ae
9a
ba
a6
82
fe
ENDCHAR
STARTCHAR 4
ENCODING 52
SWIDTH 864 0
DWIDTH 9 0
BBX 8 8 0 0
ATTRIBUTES 037c
BITMAP
ff
83
85
89
f9
b1
91
fe
ENDCHAR
STARTCHAR 5
ENCODING 53
SWIDTH 864 0
DWIDTH 9 0
BBX 7 8 1 0
ATTRIBUTES 037c
BITMAP
38
7c
f6
02
02
02
f4
38
ENDCHAR
STARTCHAR 6
ENCODING 54
SWIDTH 768 0
DWIDTH 8 0
BBX 8 4 0 1
ATTRIBUTES 0303
BITMAP
18
ff
f8
f8
ENDCHAR
STARTCHAR 7
ENCODING 55
SWIDTH 672 0
DWIDTH 7 0
BBX 6 5 0 0
ATTRIBUTES 029f
BITMAP
30
fc
6c
fc
80
ENDCHAR
STARTCHAR 8
ENCODING 56
SWIDTH 768 0
DWIDTH 8 0
BBX 6 5 1 0
ATTRIBUTES 02e4
BITMAP
e0
f0
b8
7c
1c
ENDCHAR
STARTCHAR 9
ENCODING 57
SWIDTH 576 0
DWIDTH 6 0
BBX 6 6 0 0
ATTRIBUTES 0247
BITMAP
04
08
10
20
a0
c0
ENDCHAR
STARTCHAR colon
ENCODING 58
SWIDTH 672 0
DWIDTH 7 0
BBX 6 6 0 0
ATTRIBUTES 028f
BITMAP
04
0c
98
f0
e0
c0
ENDCHAR
STARTCHAR semicolon
ENCODING 59
SWIDTH 768 0
DWIDTH 8 0
BBX 6 7 1 1
ATTRIBUTES 02d8
BITMAP
10
78
fc
fc
fc
78
70
ENDCHAR
STARTCHAR less
ENCODING 60
SWIDTH 672 0
DWIDTH 7 0
BBX 6 6 0 0
ATTRIBUTES 027c
BITMAP
78
8c
84
84
84
78
ENDCHAR
STARTCHAR equal
ENCODING 61
SWIDTH 576 0
DWIDTH 6 0
BBX 6 6 0 0
ATTRIBUTES 0230
BITMAP
fc
fc
fc
fc
fc
fc
ENDCHAR
STARTCHAR greater
ENCODING 62
SWIDTH 576 0
DWIDTH 6 0
BBX 5 6 0 0
ATTRIBUTES 0227
BITMAP
f0
88
88
88
88
f8
ENDCHAR
STARTCHAR question
ENCODING 63
SWIDTH 576 0
DWIDTH 6 0
BBX 5 6 0 0
ATTRIBUTES 0230
BITMAP
f8
88
88
88
88
f0
ENDCHAR
STARTCHAR at
ENCODING 64
SWIDTH 576 0
DWIDTH 6 0
BBX 5 6 0 0
ATTRIBUTES 0227
BITMAP
f8
88
88
88
88
f8
ENDCHAR
STARTCHAR A
ENCODING 65
SWIDTH 768 0
DWIDTH 8 0
BBX 6 6 1 1
ATTRIBUTES 02dc
BITMAP
30
78
fc
78
30
10
ENDCHAR
STARTCHAR B
ENCODING 66
SWIDTH 576 0
DWIDTH 6 0
BBX 6 6 0 0
ATTRIBUTES 0240
BITMAP
10
30
58
cc
30
10
ENDCHAR
STARTCHAR C
ENCODING 67
SWIDTH 384 0
DWIDTH 4 0
BBX 4 6 0 0
ATTRIBUTES 01a7
BITMAP
20
60
f0
f0
60
20
ENDCHAR
STARTCHAR D
ENCODING 68
SWIDTH 576 0
DWIDTH 6 0
BBX 6 6 0 0
ATTRIBUTES 0237
BITMAP
30
30
10
fc
10
30
ENDCHAR
STARTCHAR E
ENCODING 69
SWIDTH 576 0
DWIDTH 6 0
BBX 6 6 0 0
ATTRIBUTES 0240
BITMAP
30
30
54
fc
20
30
ENDCHAR
STARTCHAR F
ENCODING 70
SWIDTH 576 0
DWIDTH 6 0
BBX 6 6 0 0
ATTRIBUTES 0237
BITMAP
30
30
fc
dc
30
30
ENDCHAR
STARTCHAR G
ENCODING 71
SWIDTH 576 0
DWIDTH 6 0
BBX 6 6 0 0
ATTRIBUTES 0240
BITMAP
10
30
78
dc
30
30
ENDCHAR
STARTCHAR H
ENCODING 72
SWIDTH 576 0
DWIDTH 6 0
BBX 5 6 0 0
ATTRIBUTES 021f
BITMAP
20
70
70
60
70
20
ENDCHAR
STARTCHAR I
ENCODING 73
SWIDTH 576 0
DWIDTH 6 0
BBX 6 6 0 0
ATTRIBUTES 0240
BITMAP
10
58
70
30
58
10
ENDCHAR
STARTCHAR J
ENCODING 74
SWIDTH 576 0
DWIDTH 6 0
BBX 6 6 0 0
ATTRIBUTES 0240
BITMAP
10
78
30
78
78
30
ENDCHAR
STARTCHAR K
ENCODING 75
SWIDTH 480 0
DWIDTH 5 0
BBX 5 6 0 0
ATTRIBUTES 01fb
BITMAP
20
20
70
70
a8
20
ENDCHAR
STARTCHAR L
ENCODING 76
SWIDTH 576 0
DWIDTH 6 0
BBX 6 6 0 0
ATTRIBUTES 0237
BITMAP
30
30
78
78
30
28
ENDCHAR
STARTCHAR M
ENCODING 77
SWIDTH 576 0
DWIDTH 6 0
BBX 6 6 0 0
ATTRIBUTES 0240
BITMAP
30
30
78
78
30
28
ENDCHAR
STARTCHAR N
ENCODING 78
SWIDTH 576 0
DWIDTH 6 0
BBX 6 6 0 0
ATTRIBUTES 025c
BITMAP
30
38
78
78
74
38
ENDCHAR
STARTCHAR O
ENCODING 79
SWIDTH 480 0
DWIDTH 5 0
BBX 5 6 0 -1
ATTRIBUTES 01df
BITMAP
58
30
30
50
d0
80
ENDCHAR
STARTCHAR P
ENCODING 80
SWIDTH 480 0
DWIDTH 5 0
BBX 5 6 0 0
ATTRIBUTES 0204
BITMAP
08
50
70
60
f0
98
ENDCHAR
STARTCHAR Q
ENCODING 81
SWIDTH 576 0
DWIDTH 6 0
BBX 5 5 0 0
ATTRIBUTES 0247
BITMAP
70
98
98
58
30
ENDCHAR
STARTCHAR R
ENCODING 82
SWIDTH 576 0
DWIDTH 6 0
BBX 6 6 0 0
ATTRIBUTES 0247
BITMAP
30
30
fc
fc
30
30
ENDCHAR
STARTCHAR S
ENCODING 83
SWIDTH 576 0
DWIDTH 6 0
BBX 6 6 0 0
ATTRIBUTES 0247
BITMAP
10
10
10
fc
30
30
ENDCHAR
STARTCHAR T
ENCODING 84
SWIDTH 576 0
DWIDTH 6 0
BBX 6 6 0 0
ATTRIBUTES 0237
BITMAP
30
30
cc
cc
30
30
ENDCHAR
STARTCHAR U
ENCODING 85
SWIDTH 672 0
DWIDTH 7 0
BBX 6 6 0 0
ATTRIBUTES 0273
BITMAP
10
10
30
48
30
48
ENDCHAR
STARTCHAR V
ENCODING 86
SWIDTH 576 0
DWIDTH 6 0
BBX 6 6 0 0
ATTRIBUTES 026c
BITMAP
10
30
fc
78
68
78
ENDCHAR
STARTCHAR W
ENCODING 87
SWIDTH 576 0
DWIDTH 6 0
BBX 6 6 0 0
ATTRIBUTES 024f
BITMAP
10
30
dc
74
78
f8
ENDCHAR
STARTCHAR X
ENCODING 88
SWIDTH 576 0
DWIDTH 6 0
BBX 6 6 0 0
ATTRIBUTES 024f
BITMAP
10
70
9c
78
78
48
ENDCHAR
STARTCHAR Y
ENCODING 89
SWIDTH 576 0
DWIDTH 6 0
BBX 6 6 0 0
ATTRIBUTES 025f
BITMAP
10
10
fc
70
78
6c
ENDCHAR
STARTCHAR Z
ENCODING 90
SWIDTH 672 0
DWIDTH 7 0
BBX 6 6 0 0
ATTRIBUTES 02a8
BITMAP
30
30
dc
48
68
f8
ENDCHAR
STARTCHAR bracketleft
ENCODING 91
SWIDTH 288 0
DWIDTH 3 0
BBX 2 9 0 -2
ATTRIBUTES 0117
BITMAP
80
80
80
80
80
80
80
80
c0
ENDCHAR
STARTCHAR backslash
ENCODING 92
SWIDTH 864 0
DWIDTH 9 0
BBX 7 8 1 0
ATTRIBUTES 037c
BITMAP
38
6c
d6
d6
d6
d6
6c
38
ENDCHAR
STARTCHAR bracketright
ENCODING 93
SWIDTH 864 0
DWIDTH 9 0
BBX 7 8 1 0
ATTRIBUTES 037c
BITMAP
38
7c
ee
ee
ee
ee
6c
38
ENDCHAR
STARTCHAR asciicircum
ENCODING 94
SWIDTH 864 0
DWIDTH 9 0
BBX 7 8 1 0
ATTRIBUTES 037c
BITMAP
38
44
f6
f6
ee
de
44
38
ENDCHAR
STARTCHAR underscore
ENCODING 95
SWIDTH 864 0
DWIDTH 9 0
BBX 7 8 1 0
ATTRIBUTES 037c
BITMAP
38
44
f6
f6
ee
f6
4c
38
ENDCHAR
STARTCHAR grave
ENCODING 96
SWIDTH 864 0
DWIDTH 9 0
BBX 7 8 1 0
ATTRIBUTES 037c
BITMAP
38
7c
e6
d6
82
f6
74
38
ENDCHAR
STARTCHAR a
ENCODING 97
SWIDTH 864 0
DWIDTH 9 0
BBX 7 8 1 0
ATTRIBUTES 037c
BITMAP
38
7c
c6
ce
f6
f6
4c
38
ENDCHAR
STARTCHAR b
ENCODING 98
SWIDTH 864 0
DWIDTH 9 0
BBX 7 8 1 0
ATTRIBUTES 037c
BITMAP
38
64
de
d6
d6
d6
6c
38
ENDCHAR
STARTCHAR c
ENCODING 99
SWIDTH 864 0
DWIDTH 9 0
BBX 7 8 1 0
ATTRIBUTES 037c
BITMAP
38
7c
c6
f6
ee
ee
5c
38
ENDCHAR
STARTCHAR d
ENCODING 100
SWIDTH 864 0
DWIDTH 9 0
BBX 7 8 1 0
ATTRIBUTES 037c
BITMAP
38
64
d6
ee
de
d6
44
38
ENDCHAR
STARTCHAR e
ENCODING 101
SWIDTH 864 0
DWIDTH 9 0
BBX 7 8 1 0
ATTRIBUTES 037c
BITMAP
38
64
da
da
ea
fa
44
38
ENDCHAR
STARTCHAR f
ENCODING 102
SWIDTH 864 0
DWIDTH 9 0
BBX 7 8 1 0
ATTRIBUTES 037c
BITMAP
78
54
da
da
da
da
54
38
ENDCHAR
STARTCHAR g
ENCODING 103
SWIDTH 864 0
DWIDTH 9 0
BBX 8 8 1 0
ATTRIBUTES 037c
BITMAP
08
00
36
00
49
00
55
00
ENDCHAR
STARTCHAR h
ENCODING 104
SWIDTH 864 0
DWIDTH 9 0
BBX 7 8 1 0
ATTRIBUTES 037c
BITMAP
54
80
54
00
4a
00
3c
00
ENDCHAR
STARTCHAR i
ENCODING 105
SWIDTH 864 0
DWIDTH 9 0
BBX 7 8 1 0
ATTRIBUTES 037c
BITMAP
38
44
92
92
92
92
54
78
ENDCHAR
STARTCHAR j
ENCODING 106
SWIDTH 864 0
DWIDTH 9 0
BBX 8 8 1 0
ATTRIBUTES 037c
BITMAP
10
6c
ba
8a
8a
92
7c
78
ENDCHAR
STARTCHAR k
ENCODING 107
SWIDTH 864 0
DWIDTH 9 0
BBX 7 8 2 0
ATTRIBUTES 037c
BITMAP
08
00
36
00
44
00
4c
00
ENDCHAR
STARTCHAR l
ENCODING 108
SWIDTH 864 0
DWIDTH 9 0
BBX 8 8 1 0
ATTRIBUTES 037c
BITMAP
44
80
45
00
5b
00
3c
00
ENDCHAR
STARTCHAR m
ENCODING 109
SWIDTH 864 0
DWIDTH 9 0
BBX 8 8 1 0
ATTRIBUTES 037c
BITMAP
10
2c
52
52
69
7a
4a
3c
ENDCHAR
STARTCHAR n
ENCODING 110
SWIDTH 864 0
DWIDTH 9 0
BBX 7 8 1 0
ATTRIBUTES 037c
BITMAP
08
00
36
00
50
00
50
00
ENDCHAR
STARTCHAR o
ENCODING 111
SWIDTH 864 0
DWIDTH 9 0
BBX 8 8 1 0
ATTRIBUTES 037c
BITMAP
48
80
45
00
47
00
3c
00
ENDCHAR
STARTCHAR p
ENCODING 112
SWIDTH 864 0
DWIDTH 9 0
BBX 8 8 1 0
ATTRIBUTES 037c
BITMAP
08
00
36
00
51
00
51
00
ENDCHAR
STARTCHAR q
ENCODING 113
SWIDTH 864 0
DWIDTH 9 0
BBX 8 8 1 0
ATTRIBUTES 037c
BITMAP
5c
80
55
00
4f
00
3c
00
ENDCHAR
STARTCHAR r
ENCODING 114
SWIDTH 1056 0
DWIDTH 11 0
BBX 9 9 1 0
ATTRIBUTES 0410
BITMAP
1000
ba80
9280
5400
0800
3600
5d00
5300
4c80
ENDCHAR
STARTCHAR s
ENCODING 115
SWIDTH 1056 0
DWIDTH 11 0
BBX 9 10 1 0
ATTRIBUTES 042f
BITMAP
5500
5f00
3c00
0800
3600
5d00
5500
5c80
4500
4700
ENDCHAR
STARTCHAR t
ENCODING 116
SWIDTH 1056 0
DWIDTH 11 0
BBX 9 10 1 -1
ATTRIBUTES 041a
BITMAP
3c00
0800
3600
6500
5b00
5a80
5b00
5700
3c00
ff80
ENDCHAR
STARTCHAR u
ENCODING 117
SWIDTH 576 0
DWIDTH 6 0
BBX 5 5 0 0
ATTRIBUTES 022c
BITMAP
80
80
b8
80
80
ENDCHAR
STARTCHAR v
ENCODING 118
SWIDTH 480 0
DWIDTH 5 0
BBX 5 5 0 0
ATTRIBUTES 01f4
BITMAP
80
80
80
80
80
ENDCHAR
STARTCHAR w
ENCODING 119
SWIDTH 768 0
DWIDTH 8 0
BBX 7 5 0 0
ATTRIBUTES 02d4
BITMAP
80
80
fe
80
7e
ENDCHAR
STARTCHAR x
ENCODING 120
SWIDTH 480 0
DWIDTH 5 0
BBX 5 5 0 0
ATTRIBUTES 01f4
BITMAP
80
00
00
f8
80
ENDCHAR
STARTCHAR y
ENCODING 121
SWIDTH 480 0
DWIDTH 5 0
BBX 5 7 0 -2
ATTRIBUTES 01f4
BITMAP
80
80
80
80
f8
80
a8
ENDCHAR
STARTCHAR z
ENCODING 122
SWIDTH 480 0
DWIDTH 5 0
BBX 5 5 0 0
ATTRIBUTES 01f4
BITMAP
80
f8
80
a8
80
ENDCHAR
STARTCHAR braceleft
ENCODING 123
SWIDTH 288 0
DWIDTH 3 0
BBX 3 10 0 -2
ATTRIBUTES 014f
BITMAP
e0
80
e0
80
00
00
e0
80
c0
80
ENDCHAR
STARTCHAR bar
ENCODING 124
SWIDTH 288 0
DWIDTH 3 0
BBX 1 10 1 -2
ATTRIBUTES 0103
BITMAP
80
80
00
00
00
00
00
00
00
00
ENDCHAR
STARTCHAR braceright
ENCODING 125
SWIDTH 288 0
DWIDTH 3 0
BBX 3 10 0 -2
ATTRIBUTES 014f
BITMAP
60
00
60
00
80
80
80
80
60
80
ENDCHAR
STARTCHAR asciitilde
ENCODING 126
SWIDTH 576 0
DWIDTH 6 0
BBX 5 1 0 3
ATTRIBUTES 0247
BITMAP
50
ENDCHAR
STARTCHAR C000177
ENCODING 127
SWIDTH 480 0
DWIDTH 5 0
BBX 5 5 0 0
ATTRIBUTES 01f7
BITMAP
50
50
20
90
a8
ENDCHAR
STARTCHAR C000200
ENCODING 128
SWIDTH 768 0
DWIDTH 8 0
BBX 6 7 1 0
ATTRIBUTES 02ee
BITMAP
6c
6c
6c
50
70
20
50
ENDCHAR
STARTCHAR C000201
ENCODING 129
SWIDTH 768 0
DWIDTH 8 0
BBX 6 7 1 0
ATTRIBUTES 02ee
BITMAP
88
88
50
50
50
20
20
ENDCHAR
STARTCHAR C000202
ENCODING 130
SWIDTH 768 0
DWIDTH 8 0
BBX 6 7 1 0
ATTRIBUTES 02ee
BITMAP
c0
18
10
20
40
f8
20
ENDCHAR
STARTCHAR C000203
ENCODING 131
SWIDTH 768 0
DWIDTH 8 0
BBX 6 7 1 0
ATTRIBUTES 02ee
BITMAP
40
40
40
40
80
40
40
ENDCHAR
STARTCHAR C000204
ENCODING 132
SWIDTH 768 0
DWIDTH 8 0
BBX 6 7 1 0
ATTRIBUTES 02ee
BITMAP
40
60
80
80
80
80
80
ENDCHAR
STARTCHAR C000205
ENCODING 133
SWIDTH 768 0
DWIDTH 8 0
BBX 6 7 1 0
ATTRIBUTES 02ee
BITMAP
80
80
80
80
80
80
40
ENDCHAR
STARTCHAR C000206
ENCODING 134
SWIDTH 768 0
DWIDTH 8 0
BBX 6 7 1 0
ATTRIBUTES 02ee
BITMAP
40
40
40
20
40
40
40
ENDCHAR
STARTCHAR C000207
ENCODING 135
SWIDTH 768 0
DWIDTH 8 0
BBX 6 7 1 0
ATTRIBUTES 02ee
BITMAP
c0
f8
f8
88
88
88
f8
ENDCHAR
STARTCHAR C000210
ENCODING 136
SWIDTH 768 0
DWIDTH 8 0
BBX 6 7 1 0
ATTRIBUTES 02ee
BITMAP
fc
84
84
84
84
84
fc
ENDCHAR
STARTCHAR C000211
ENCODING 137
SWIDTH 768 0
DWIDTH 8 0
BBX 6 7 1 0
ATTRIBUTES 02ee
BITMAP
fc
84
84
84
84
84
fc
ENDCHAR
STARTCHAR C000212
ENCODING 138
SWIDTH 768 0
DWIDTH 8 0
BBX 6 7 1 0
ATTRIBUTES 02ee
BITMAP
fc
84
84
84
84
84
fc
ENDCHAR
STARTCHAR C000213
ENCODING 139
SWIDTH 768 0
DWIDTH 8 0
BBX 6 7 1 0
ATTRIBUTES 02ee
BITMAP
fc
84
84
84
84
84
fc
ENDCHAR
STARTCHAR C000214
ENCODING 140
SWIDTH 768 0
DWIDTH 8 0
BBX 6 7 1 0
ATTRIBUTES 02ee
BITMAP
fc
84
84
84
84
84
fc
ENDCHAR
STARTCHAR C000215
ENCODING 141
SWIDTH 768 0
DWIDTH 8 0
BBX 6 7 1 0
ATTRIBUTES 02ee
BITMAP
fc
84
84
84
84
84
fc
ENDCHAR
STARTCHAR C000216
ENCODING 142
SWIDTH 768 0
DWIDTH 8 0
BBX 6 7 1 0
ATTRIBUTES 02ee
BITMAP
fc
84
84
84
84
84
fc
ENDCHAR
STARTCHAR C000217
ENCODING 143
SWIDTH 768 0
DWIDTH 8 0
BBX 6 7 1 0
ATTRIBUTES 02ee
BITMAP
fc
84
84
84
84
84
fc
ENDCHAR
STARTCHAR C000220
ENCODING 144
SWIDTH 768 0
DWIDTH 8 0
BBX 6 7 1 0
ATTRIBUTES 02ee
BITMAP
fc
84
84
84
84
84
fc
ENDCHAR
STARTCHAR C000221
ENCODING 145
SWIDTH 768 0
DWIDTH 8 0
BBX 6 7 1 0
ATTRIBUTES 02ee
BITMAP
fc
84
84
84
84
84
fc
ENDCHAR
STARTCHAR C000222
ENCODING 146
SWIDTH 768 0
DWIDTH 8 0
BBX 6 7 1 0
ATTRIBUTES 02ee
BITMAP
fc
84
84
84
84
84
fc
ENDCHAR
STARTCHAR C000223
ENCODING 147
SWIDTH 768 0
DWIDTH 8 0
BBX 6 7 1 0
ATTRIBUTES 02ee
BITMAP
fc
84
84
84
84
84
fc
ENDCHAR
STARTCHAR C000224
ENCODING 148
SWIDTH 768 0
DWIDTH 8 0
BBX 6 7 1 0
ATTRIBUTES 02ee
BITMAP
fc
84
84
84
84
84
fc
ENDCHAR
STARTCHAR C000225
ENCODING 149
SWIDTH 768 0
DWIDTH 8 0
BBX 6 7 1 0
ATTRIBUTES 02ee
BITMAP
fc
84
84
84
84
84
fc
ENDCHAR
STARTCHAR C000226
ENCODING 150
SWIDTH 768 0
DWIDTH 8 0
BBX 6 7 1 0
ATTRIBUTES 02ee
BITMAP
fc
84
84
84
84
84
fc
ENDCHAR
STARTCHAR C000227
ENCODING 151
SWIDTH 768 0
DWIDTH 8 0
BBX 6 7 1 0
ATTRIBUTES 02ee
BITMAP
fc
84
84
84
84
84
fc
ENDCHAR
STARTCHAR C000230
ENCODING 152
SWIDTH 768 0
DWIDTH 8 0
BBX 6 7 1 0
ATTRIBUTES 02ee
BITMAP
fc
84
84
84
84
84
fc
ENDCHAR
STARTCHAR C000231
ENCODING 153
SWIDTH 768 0
DWIDTH 8 0
BBX 6 7 1 0
ATTRIBUTES 02ee
BITMAP
fc
84
84
84
84
84
fc
ENDCHAR
STARTCHAR C000232
ENCODING 154
SWIDTH 768 0
DWIDTH 8 0
BBX 6 7 1 0
ATTRIBUTES 02ee
BITMAP
fc
84
84
84
84
84
fc
ENDCHAR
STARTCHAR C000233
ENCODING 155
SWIDTH 768 0
DWIDTH 8 0
BBX 6 7 1 0
ATTRIBUTES 02ee
BITMAP
fc
84
84
84
84
84
fc
ENDCHAR
STARTCHAR C000234
ENCODING 156
SWIDTH 768 0
DWIDTH 8 0
BBX 6 7 1 0
ATTRIBUTES 02ee
BITMAP
fc
84
84
84
84
84
fc
ENDCHAR
STARTCHAR C000235
ENCODING 157
SWIDTH 768 0
DWIDTH 8 0
BBX 6 7 1 0
ATTRIBUTES 02ee
BITMAP
fc
84
84
84
84
84
fc
ENDCHAR
STARTCHAR C000236
ENCODING 158
SWIDTH 768 0
DWIDTH 8 0
BBX 6 7 1 0
ATTRIBUTES 02ee
BITMAP
fc
84
84
84
84
84
fc
ENDCHAR
STARTCHAR C000237
ENCODING 159
SWIDTH 768 0
DWIDTH 8 0
BBX 6 7 1 0
ATTRIBUTES 02ee
BITMAP
fc
84
84
84
84
84
fc
ENDCHAR
STARTCHAR nobreakspace
ENCODING 160
SWIDTH 288 0
DWIDTH 3 0
BBX 0 0 0 0
ATTRIBUTES 0117
BITMAP
ENDCHAR
STARTCHAR exclamdown
ENCODING 161
SWIDTH 288 0
DWIDTH 3 0
BBX 1 7 1 -2
ATTRIBUTES 014c
BITMAP
80
80
80
80
80
80
80
ENDCHAR
STARTCHAR cent
ENCODING 162
SWIDTH 576 0
DWIDTH 6 0
BBX 5 9 0 -2
ATTRIBUTES 022c
BITMAP
f8
80
80
80
80
80
f8
f8
80
ENDCHAR
STARTCHAR sterling
ENCODING 163
SWIDTH 576 0
DWIDTH 6 0
BBX 5 8 0 0
ATTRIBUTES 022c
BITMAP
80
80
80
80
f8
f8
80
80
ENDCHAR
STARTCHAR currency
ENCODING 164
SWIDTH 576 0
DWIDTH 6 0
BBX 5 5 0 1
ATTRIBUTES 022c
BITMAP
80
80
80
f8
f8
ENDCHAR
STARTCHAR yen
ENCODING 165
SWIDTH 576 0
DWIDTH 6 0
BBX 6 7 0 0
ATTRIBUTES 022c
BITMAP
84
84
84
84
84
fc
fc
ENDCHAR
STARTCHAR brokenbar
ENCODING 166
SWIDTH 288 0
DWIDTH 3 0
BBX 1 10 1 -2
ATTRIBUTES 0103
BITMAP
80
80
80
80
80
80
80
80
80
80
ENDCHAR
STARTCHAR section
ENCODING 167
SWIDTH 576 0
DWIDTH 6 0
BBX 5 10 0 -2
ATTRIBUTES 022c
BITMAP
80
80
f8
f8
80
80
80
80
80
f8
ENDCHAR
STARTCHAR diaeresis
ENCODING 168
SWIDTH 288 0
DWIDTH 3 0
BBX 3 1 0 6
ATTRIBUTES 014c
BITMAP
80
ENDCHAR
STARTCHAR copyright
ENCODING 169
SWIDTH 768 0
DWIDTH 8 0
BBX 8 8 0 0
ATTRIBUTES 02df
BITMAP
00
80
80
80
80
80
10
30
ENDCHAR
STARTCHAR ordfeminine
ENCODING 170
SWIDTH 384 0
DWIDTH 4 0
BBX 3 5 0 3
ATTRIBUTES 0174
BITMAP
60
a0
a0
a0
60
ENDCHAR
STARTCHAR guillemotleft
ENCODING 171
SWIDTH 576 0
DWIDTH 6 0
BBX 4 5 1 0
ATTRIBUTES 022c
BITMAP
40
40
20
50
40
ENDCHAR
STARTCHAR notsign
ENCODING 172
SWIDTH 576 0
DWIDTH 6 0
BBX 5 3 0 2
ATTRIBUTES 0247
BITMAP
e0
40
40
ENDCHAR
STARTCHAR hyphen
ENCODING 173
SWIDTH 288 0
DWIDTH 3 0
BBX 3 1 0 2
ATTRIBUTES 014c
BITMAP
80
ENDCHAR
STARTCHAR registered
ENCODING 174
SWIDTH 768 0
DWIDTH 8 0
BBX 9 8 -1 0
ATTRIBUTES 02df
BITMAP
f880
5080
7080
4800
3080
1080
1080
8080
ENDCHAR
STARTCHAR macron
ENCODING 175
SWIDTH 576 0
DWIDTH 6 0
BBX 6 1 0 8
ATTRIBUTES 0227
BITMAP
80
ENDCHAR
STARTCHAR degree
ENCODING 176
SWIDTH 384 0
DWIDTH 4 0
BBX 4 4 0 4
ATTRIBUTES 018f
BITMAP
00
00
80
80
ENDCHAR
STARTCHAR plusminus
ENCODING 177
SWIDTH 576 0
DWIDTH 6 0
BBX 5 6 0 0
ATTRIBUTES 0223
BITMAP
80
80
20
50
40
60
ENDCHAR
STARTCHAR twosuperior
ENCODING 178
SWIDTH 288 0
DWIDTH 3 0
BBX 3 4 0 4
ATTRIBUTES 014c
BITMAP
80
80
60
00
ENDCHAR
STARTCHAR threesuperior
ENCODING 179
SWIDTH 288 0
DWIDTH 3 0
BBX 3 4 0 4
ATTRIBUTES 014c
BITMAP
80
60
a0
00
ENDCHAR
STARTCHAR acute
ENCODING 180
SWIDTH 288 0
DWIDTH 3 0
BBX 2 1 0 6
ATTRIBUTES 014c
BITMAP
40
ENDCHAR
STARTCHAR mu
ENCODING 181
SWIDTH 576 0
DWIDTH 6 0
BBX 5 7 0 -2
ATTRIBUTES 0240
BITMAP
58
a0
a0
58
60
18
40
ENDCHAR
STARTCHAR paragraph
ENCODING 182
SWIDTH 576 0
DWIDTH 6 0
BBX 6 9 0 -2
ATTRIBUTES 0218
BITMAP
a0
e0
e0
60
50
60
a0
50
50
ENDCHAR
STARTCHAR periodcentered
ENCODING 183
SWIDTH 288 0
DWIDTH 3 0
BBX 1 1 1 3
ATTRIBUTES 0117
BITMAP
80
ENDCHAR
STARTCHAR cedilla
ENCODING 184
SWIDTH 288 0
DWIDTH 3 0
BBX 2 2 0 -2
ATTRIBUTES 014c
BITMAP
00
00
ENDCHAR
STARTCHAR onesuperior
ENCODING 185
SWIDTH 480 0
DWIDTH 5 0
BBX 5 5 0 0
ATTRIBUTES 01f7
BITMAP
e0
18
00
20
00
ENDCHAR
STARTCHAR masculine
ENCODING 186
SWIDTH 384 0
DWIDTH 4 0
BBX 4 5 0 3
ATTRIBUTES 016b
BITMAP
50
80
50
80
90
ENDCHAR
STARTCHAR guillemotright
ENCODING 187
SWIDTH 576 0
DWIDTH 6 0
BBX 4 5 1 0
ATTRIBUTES 022c
BITMAP
80
50
80
40
00
ENDCHAR
STARTCHAR onequarter
ENCODING 188
SWIDTH 864 0
DWIDTH 9 0
BBX 7 8 1 0
ATTRIBUTES 0343
BITMAP
3e
00
fc
40
60
60
40
20
ENDCHAR
STARTCHAR onehalf
ENCODING 189
SWIDTH 864 0
DWIDTH 9 0
BBX 7 9 1 -1
ATTRIBUTES 0343
BITMAP
20
20
20
00
f8
60
a0
40
80
ENDCHAR
STARTCHAR threequarters
ENCODING 190
SWIDTH 864 0
DWIDTH 9 0
BBX 8 8 0 0
ATTRIBUTES 0343
BITMAP
60
60
60
e0
80
88
88
88
ENDCHAR
STARTCHAR questiondown
ENCODING 191
SWIDTH 576 0
DWIDTH 6 0
BBX 5 7 0 -2
ATTRIBUTES 0263
BITMAP
88
f8
80
80
78
e8
e8
ENDCHAR
STARTCHAR Agrave
ENCODING 192
SWIDTH 672 0
DWIDTH 7 0
BBX 6 9 0 0
ATTRIBUTES 029b
BITMAP
68
28
28
28
28
28
80
40
c0
ENDCHAR
STARTCHAR Aacute
ENCODING 193
SWIDTH 672 0
DWIDTH 7 0
BBX 6 9 0 0
ATTRIBUTES 029b
BITMAP
f8
88
88
88
f8
40
a0
90
a0
ENDCHAR
STARTCHAR Acircumflex
ENCODING 194
SWIDTH 672 0
DWIDTH 7 0
BBX 6 10 0 0
ATTRIBUTES 029b
BITMAP
40
a0
50
50
60
a0
44
c4
48
48
ENDCHAR
STARTCHAR Atilde
ENCODING 195
SWIDTH 672 0
DWIDTH 7 0
BBX 6 9 0 0
ATTRIBUTES 029b
BITMAP
10
24
2c
40
44
c4
48
48
14
ENDCHAR
STARTCHAR Adiaeresis
ENCODING 196
SWIDTH 672 0
DWIDTH 7 0
BBX 7 9 0 0
ATTRIBUTES 029b
BITMAP
2a
22
44
4e
62
62
64
e8
08
ENDCHAR
STARTCHAR Aring
ENCODING 197
SWIDTH 672 0
DWIDTH 7 0
BBX 6 9 0 0
ATTRIBUTES 029b
BITMAP
10
24
20
20
00
20
60
80
88
ENDCHAR
STARTCHAR AE
ENCODING 198
SWIDTH 960 0
DWIDTH 10 0
BBX 9 8 0 0
ATTRIBUTES 03e8
BITMAP
7000
3000
3000
4800
8480
0000
3000
4800
ENDCHAR
STARTCHAR Ccedilla
ENCODING 199
SWIDTH 768 0
DWIDTH 8 0
BBX 6 10 1 -2
ATTRIBUTES 02d4
BITMAP
78
84
84
00
00
30
30
30
48
48
ENDCHAR
STARTCHAR Egrave
ENCODING 200
SWIDTH 672 0
DWIDTH 7 0
BBX 5 9 1 0
ATTRIBUTES 029b
BITMAP
78
80
80
30
00
30
30
48
48
ENDCHAR
STARTCHAR Eacute
ENCODING 201
SWIDTH 672 0
DWIDTH 7 0
BBX 5 9 1 0
ATTRIBUTES 029b
BITMAP
78
80
80
00
10
28
28
28
40
ENDCHAR
STARTCHAR Ecircumflex
ENCODING 202
SWIDTH 672 0
DWIDTH 7 0
BBX 5 10 1 0
ATTRIBUTES 029b
BITMAP
78
40
80
30
20
30
30
48
48
78
ENDCHAR
STARTCHAR Ediaeresis
ENCODING 203
SWIDTH 672 0
DWIDTH 7 0
BBX 5 9 1 0
ATTRIBUTES 029b
BITMAP
80
80
18
80
10
00
20
00
20
ENDCHAR
STARTCHAR Igrave
ENCODING 204
SWIDTH 288 0
DWIDTH 3 0
BBX 2 9 0 0
ATTRIBUTES 0117
BITMAP
00
40
00
40
00
40
00
80
80
ENDCHAR
STARTCHAR Iacute
ENCODING 205
SWIDTH 288 0
DWIDTH 3 0
BBX 2 9 0 0
ATTRIBUTES 0117
BITMAP
00
40
80
80
80
80
40
40
00
ENDCHAR
STARTCHAR Icircumflex
ENCODING 206
SWIDTH 288 0
DWIDTH 3 0
BBX 3 9 0 0
ATTRIBUTES 0117
BITMAP
20
00
e0
80
80
80
80
80
80
ENDCHAR
STARTCHAR Idiaeresis
ENCODING 207
SWIDTH 288 0
DWIDTH 3 0
BBX 3 9 0 0
ATTRIBUTES 0117
BITMAP
e0
00
e0
80
80
80
80
80
80
ENDCHAR
STARTCHAR ETH
ENCODING 208
SWIDTH 768 0
DWIDTH 8 0
BBX 7 8 0 0
ATTRIBUTES 02d4
BITMAP
f8
00
00
f8
80
80
80
80
ENDCHAR
STARTCHAR Ntilde
ENCODING 209
SWIDTH 768 0
DWIDTH 8 0
BBX 6 9 1 0
ATTRIBUTES 02d4
BITMAP
80
80
f8
00
f8
80
80
80
80
ENDCHAR
STARTCHAR Ograve
ENCODING 210
SWIDTH 768 0
DWIDTH 8 0
BBX 7 9 0 0
ATTRIBUTES 030b
BITMAP
80
80
f8
00
40
40
40
40
40
ENDCHAR
STARTCHAR Oacute
ENCODING 211
SWIDTH 768 0
DWIDTH 8 0
BBX 7 9 0 0
ATTRIBUTES 030b
BITMAP
40
40
40
00
80
80
80
80
80
ENDCHAR
STARTCHAR Ocircumflex
ENCODING 212
SWIDTH 768 0
DWIDTH 8 0
BBX 7 10 0 0
ATTRIBUTES 030b
BITMAP
80
80
80
e0
00
40
40
40
40
40
ENDCHAR
STARTCHAR Otilde
ENCODING 213
SWIDTH 768 0
DWIDTH 8 0
BBX 7 10 0 0
ATTRIBUTES 030b
BITMAP
40
40
00
40
40
40
40
40
40
40
ENDCHAR
STARTCHAR Odiaeresis
ENCODING 214
SWIDTH 768 0
DWIDTH 8 0
BBX 8 9 0 0
ATTRIBUTES 030b
BITMAP
40
78
44
42
42
42
42
44
7c
ENDCHAR
STARTCHAR multiply
ENCODING 215
SWIDTH 576 0
DWIDTH 6 0
BBX 4 5 1 1
ATTRIBUTES 0247
BITMAP
30
00
c0
c0
a0
ENDCHAR
STARTCHAR Ooblique
ENCODING 216
SWIDTH 768 0
DWIDTH 8 0
BBX 7 8 0 0
ATTRIBUTES 030b
BITMAP
94
94
8c
84
00
38
44
82
ENDCHAR
STARTCHAR Ugrave
ENCODING 217
SWIDTH 768 0
DWIDTH 8 0
BBX 6 9 1 0
ATTRIBUTES 02d4
BITMAP
80
80
80
44
38
00
38
44
80
ENDCHAR
STARTCHAR Uacute
ENCODING 218
SWIDTH 768 0
DWIDTH 8 0
BBX 6 9 1 0
ATTRIBUTES 02d4
BITMAP
80
80
80
44
38
00
00
38
44
ENDCHAR
STARTCHAR Ucircumflex
ENCODING 219
SWIDTH 768 0
DWIDTH 8 0
BBX 6 9 1 0
ATTRIBUTES 02d4
BITMAP
80
80
80
80
44
38
00
00
38
ENDCHAR
STARTCHAR Udiaeresis
ENCODING 220
SWIDTH 768 0
DWIDTH 8 0
BBX 6 9 1 0
ATTRIBUTES 02d4
BITMAP
44
80
80
80
80
44
38
00
3c
ENDCHAR
STARTCHAR Yacute
ENCODING 221
SWIDTH 672 0
DWIDTH 7 0
BBX 6 9 0 0
ATTRIBUTES 029b
BITMAP
60
40
40
40
40
40
3c
90
60
ENDCHAR
STARTCHAR THORN
ENCODING 222
SWIDTH 672 0
DWIDTH 7 0
BBX 5 7 1 0
ATTRIBUTES 029b
BITMAP
60
f0
50
10
68
c8
88
ENDCHAR
STARTCHAR ssharp
ENCODING 223
SWIDTH 576 0
DWIDTH 6 0
BBX 5 8 0 0
ATTRIBUTES 0263
BITMAP
90
a0
40
b8
20
00
80
80
ENDCHAR
STARTCHAR agrave
ENCODING 224
SWIDTH 576 0
DWIDTH 6 0
BBX 5 7 0 0
ATTRIBUTES 022c
BITMAP
80
80
80
80
78
10
00
ENDCHAR
STARTCHAR aacute
ENCODING 225
SWIDTH 576 0
DWIDTH 6 0
BBX 5 7 0 0
ATTRIBUTES 022c
BITMAP
80
80
80
80
80
80
78
ENDCHAR
STARTCHAR acircumflex
ENCODING 226
SWIDTH 576 0
DWIDTH 6 0
BBX 5 8 0 0
ATTRIBUTES 022c
BITMAP
30
00
80
80
80
80
80
80
ENDCHAR
STARTCHAR atilde
ENCODING 227
SWIDTH 576 0
DWIDTH 6 0
BBX 5 8 0 0
ATTRIBUTES 022c
BITMAP
78
50
00
80
80
80
80
80
ENDCHAR
STARTCHAR adiaeresis
ENCODING 228
SWIDTH 576 0
DWIDTH 6 0
BBX 6 7 0 0
ATTRIBUTES 022c
BITMAP
84
78
10
00
48
48
30
ENDCHAR
STARTCHAR aring
ENCODING 229
SWIDTH 576 0
DWIDTH 6 0
BBX 5 8 0 0
ATTRIBUTES 022c
BITMAP
30
10
10
10
80
f0
88
88
ENDCHAR
STARTCHAR ae
ENCODING 230
SWIDTH 864 0
DWIDTH 9 0
BBX 8 6 0 0
ATTRIBUTES 0378
BITMAP
f8
80
80
40
b0
90
ENDCHAR
STARTCHAR ccedilla
ENCODING 231
SWIDTH 480 0
DWIDTH 5 0
BBX 5 8 0 -2
ATTRIBUTES 01f4
BITMAP
a0
b0
98
88
b8
00
70
88
ENDCHAR
STARTCHAR egrave
ENCODING 232
SWIDTH 576 0
DWIDTH 6 0
BBX 5 7 0 0
ATTRIBUTES 022c
BITMAP
38
e8
88
f8
00
70
88
ENDCHAR
STARTCHAR eacute
ENCODING 233
SWIDTH 576 0
DWIDTH 6 0
BBX 5 7 0 0
ATTRIBUTES 022c
BITMAP
38
e8
88
f8
20
00
70
ENDCHAR
STARTCHAR ecircumflex
ENCODING 234
SWIDTH 576 0
DWIDTH 6 0
BBX 5 8 0 0
ATTRIBUTES 022c
BITMAP
88
38
e8
88
f8
20
00
70
ENDCHAR
STARTCHAR ediaeresis
ENCODING 235
SWIDTH 576 0
DWIDTH 6 0
BBX 6 7 0 0
ATTRIBUTES 022c
BITMAP
88
38
e8
88
f8
00
78
ENDCHAR
STARTCHAR igrave
ENCODING 236
SWIDTH 288 0
DWIDTH 3 0
BBX 2 7 0 0
ATTRIBUTES 0117
BITMAP
40
00
40
80
40
00
00
ENDCHAR
STARTCHAR iacute
ENCODING 237
SWIDTH 288 0
DWIDTH 3 0
BBX 2 7 0 0
ATTRIBUTES 0117
BITMAP
40
80
00
c0
80
c0
40
ENDCHAR
STARTCHAR icircumflex
ENCODING 238
SWIDTH 288 0
DWIDTH 3 0
BBX 3 7 0 0
ATTRIBUTES 0117
BITMAP
80
60
40
80
60
00
60
ENDCHAR
STARTCHAR idiaeresis
ENCODING 239
SWIDTH 288 0
DWIDTH 3 0
BBX 3 7 0 0
ATTRIBUTES 0117
BITMAP
80
80
80
60
20
60
00
ENDCHAR
STARTCHAR eth
ENCODING 240
SWIDTH 576 0
DWIDTH 6 0
BBX 5 7 0 0
ATTRIBUTES 022c
BITMAP
70
58
f0
88
50
20
00
ENDCHAR
STARTCHAR ntilde
ENCODING 241
SWIDTH 576 0
DWIDTH 6 0
BBX 5 8 0 0
ATTRIBUTES 022c
BITMAP
70
58
f0
88
50
20
20
00
ENDCHAR
STARTCHAR ograve
ENCODING 242
SWIDTH 576 0
DWIDTH 6 0
BBX 5 7 0 0
ATTRIBUTES 022c
BITMAP
70
58
f0
88
50
20
00
ENDCHAR
STARTCHAR oacute
ENCODING 243
SWIDTH 576 0
DWIDTH 6 0
BBX 5 7 0 0
ATTRIBUTES 022c
BITMAP
30
48
70
48
48
30
40
ENDCHAR
STARTCHAR ocircumflex
ENCODING 244
SWIDTH 576 0
DWIDTH 6 0
BBX 5 8 0 0
ATTRIBUTES 022c
BITMAP
00
40
40
40
40
40
80
00
ENDCHAR
STARTCHAR otilde
ENCODING 245
SWIDTH 576 0
DWIDTH 6 0
BBX 5 8 0 0
ATTRIBUTES 022c
BITMAP
80
80
80
80
80
e0
00
40
ENDCHAR
STARTCHAR odiaeresis
ENCODING 246
SWIDTH 576 0
DWIDTH 6 0
BBX 6 7 0 0
ATTRIBUTES 022c
BITMAP
40
40
40
40
a0
00
40
ENDCHAR
STARTCHAR division
ENCODING 247
SWIDTH 576 0
DWIDTH 6 0
BBX 5 4 0 2
ATTRIBUTES 0223
BITMAP
40
40
40
40
ENDCHAR
STARTCHAR oslash
ENCODING 248
SWIDTH 576 0
DWIDTH 6 0
BBX 5 6 0 0
ATTRIBUTES 0263
BITMAP
20
10
78
88
88
88
ENDCHAR
STARTCHAR ugrave
ENCODING 249
SWIDTH 576 0
DWIDTH 6 0
BBX 5 7 0 0
ATTRIBUTES 022c
BITMAP
70
30
00
f0
88
88
88
ENDCHAR
STARTCHAR uacute
ENCODING 250
SWIDTH 576 0
DWIDTH 6 0
BBX 5 7 0 0
ATTRIBUTES 022c
BITMAP
88
88
00
70
88
88
88
ENDCHAR
STARTCHAR ucircumflex
ENCODING 251
SWIDTH 576 0
DWIDTH 6 0
BBX 5 7 0 0
ATTRIBUTES 022c
BITMAP
88
70
00
70
88
88
88
ENDCHAR
STARTCHAR udiaeresis
ENCODING 252
SWIDTH 576 0
DWIDTH 6 0
BBX 5 7 0 0
ATTRIBUTES 022c
BITMAP
88
70
20
00
70
88
88
ENDCHAR
STARTCHAR yacute
ENCODING 253
SWIDTH 480 0
DWIDTH 5 0
BBX 5 9 0 -2
ATTRIBUTES 01f4
BITMAP
88
88
70
20
00
70
88
88
88
ENDCHAR
STARTCHAR thorn
ENCODING 254
SWIDTH 576 0
DWIDTH 6 0
BBX 5 9 0 -2
ATTRIBUTES 022c
BITMAP
88
70
00
30
48
88
48
48
30
ENDCHAR
STARTCHAR ydiaeresis
ENCODING 255
SWIDTH 480 0
DWIDTH 5 0
BBX 5 9 0 -2
ATTRIBUTES 01f4
BITMAP
20
00
f8
00
28
58
98
a8
c8
ENDCHAR
ENDFONT
